<?xml version="1.0" encoding="UTF-8" standalone="no"?><!-- Generator: Gravit.io --><svg xmlns="http://www.w3.org/2000/svg" xmlns:xlink="http://www.w3.org/1999/xlink" style="isolation:isolate" viewBox="0 0 4032 2268" width="4032pt" height="2268pt"><defs><clipPath id="_clipPath_OLJqebyE0Mp8L41LjKla4T6kDKVtTsSS"><rect width="4032" height="2268"/></clipPath></defs><g clip-path="url(#_clipPath_OLJqebyE0Mp8L41LjKla4T6kDKVtTsSS)"><path d=" M 1929.888 832.275 C 1943.74 862.824 1984.288 900.742 2051.503 946 C 2115.963 915.722 2158.842 881.477 2180.112 843.233 L 2180.112 812.224 L 1929.888 809.444 L 1929.888 832.275 Z " fill="rgb(96,74,68)" vector-effect="non-scaling-stroke" stroke-width="1" stroke="rgb(96,74,68)" stroke-linejoin="miter" stroke-linecap="square" stroke-miterlimit="3"/><g><path d=" M 1926.071 444.586 C 1916.835 403.8 1881.777 373.418 1839.991 373.418 C 1791.168 373.418 1751.53 414.895 1751.53 465.982 L 1751.53 465.982 C 1751.53 510.297 1763.292 539.419 1803.071 548.46 C 1791.413 574.821 1793.939 624.545 1800.015 643.478 C 1801.702 648.733 1805.415 656.819 1808.302 661.522 C 1844.248 720.078 1912.44 764.792 1935.233 822.514 C 1974.819 851.956 2017.796 870.264 2058.147 872 C 2099.277 867.589 2142.263 848.401 2181.466 819.522 C 2227.173 740.179 2283.243 685.643 2293.881 662.112 C 2296.154 657.083 2298.822 648.595 2299.836 643.17 C 2303.03 626.061 2305.449 569.495 2291.454 541 L 2291.454 548.46 C 2320.098 533.127 2339.73 501.935 2339.73 465.982 C 2339.73 414.895 2300.091 373.418 2251.268 373.418 C 2213.239 373.418 2180.782 398.583 2168.306 433.86 C 2134.957 419.389 2089.445 444.586 2050 444.586 C 2001.666 444.586 1964.601 423.452 1926.071 444.586 Z " fill="rgb(108,83,76)"/></g><path d=" M 1938.776 713.346 L 1966.776 806.225 C 2020.237 849.919 2082.914 849.931 2154.776 806.225 L 2172.776 713.346 L 2050.776 646.009 L 1938.776 713.346 Z " fill="rgb(131,99,86)" vector-effect="non-scaling-stroke" stroke-width="1" stroke="rgb(131,99,86)" stroke-linejoin="miter" stroke-linecap="square" stroke-miterlimit="3"/><path d=" M 1985 709 L 2003 793 C 2020.419 802.533 2091.09 802.538 2109 793 L 2131 709 L 2057 677 L 1985 709 Z " fill="rgb(0,0,0)" vector-effect="non-scaling-stroke" stroke-width="1" stroke="rgb(0,0,0)" stroke-linejoin="miter" stroke-linecap="square" stroke-miterlimit="3"/><path d=" M 2003.849 794.383 C 2036.115 822.165 2069.762 823.835 2112.151 796.044 L 2092.899 774.915 C 2085.696 767.011 2073.216 766.196 2065.047 773.097 L 2059.849 777.488 L 2051.693 771.747 C 2042.948 765.591 2029.878 766.897 2022.525 774.662 L 2003.849 794.383 Z " fill="rgb(194,129,137)" vector-effect="non-scaling-stroke" stroke-width="1" stroke="rgb(194,129,137)" stroke-linejoin="miter" stroke-linecap="square" stroke-miterlimit="3"/><clipPath id="_clipPath_n4NJ1Z7AQKXBHzA1LGUBG9FVGFCIwXHI"><path d=" M 2003.849 794.383 C 2036.115 822.165 2069.762 823.835 2112.151 796.044 L 2092.899 774.915 C 2085.696 767.011 2073.216 766.196 2065.047 773.097 L 2059.849 777.488 L 2051.693 771.747 C 2042.948 765.591 2029.878 766.897 2022.525 774.662 L 2003.849 794.383 Z " fill="rgb(194,129,137)" vector-effect="non-scaling-stroke" stroke-width="1" stroke="rgb(194,129,137)" stroke-linejoin="miter" stroke-linecap="square" stroke-miterlimit="3"/></clipPath><g clip-path="url(#_clipPath_n4NJ1Z7AQKXBHzA1LGUBG9FVGFCIwXHI)"><path d=" M 2002.865 801.864 C 2004.429 789.987 2010.772 778.643 2021.865 767.864 C 2015.57 780.714 2018.58 796.037 2030.865 813.864 L 2002.865 801.864 Z " fill="rgb(255,255,255)" vector-effect="non-scaling-stroke" stroke-width="1" stroke="rgb(255,255,255)" stroke-linejoin="miter" stroke-linecap="square" stroke-miterlimit="3"/><path d=" M 2042.987 820.688 L 2028.437 818.376 C 2028.543 809.163 2033.433 799.596 2043.081 789.703 C 2040.751 795.051 2041.384 800.538 2043.203 806.046 C 2045.559 813.181 2050.392 817.245 2057.536 823 L 2042.987 820.688 Z " fill="rgb(255,255,255)" vector-effect="non-scaling-stroke" stroke-width="1" stroke="rgb(255,255,255)" stroke-linejoin="miter" stroke-linecap="square" stroke-miterlimit="3"/><path d=" M 2073.528 820.688 L 2088.077 818.376 C 2087.972 809.163 2083.082 799.596 2073.433 789.703 C 2075.763 795.051 2075.13 800.538 2073.311 806.046 C 2070.956 813.181 2066.122 817.245 2058.978 823 L 2073.528 820.688 Z " fill="rgb(255,255,255)" vector-effect="non-scaling-stroke" stroke-width="1" stroke="rgb(255,255,255)" stroke-linejoin="miter" stroke-linecap="square" stroke-miterlimit="3"/><path d=" M 2098.151 807.864 L 2112.151 801.864 C 2110.588 789.987 2104.245 778.643 2093.151 767.864 C 2096.299 774.289 2096.543 781.507 2095.619 788.998 C 2094.423 798.701 2090.294 804.951 2084.151 813.864 L 2098.151 807.864 Z " fill="rgb(255,255,255)" vector-effect="non-scaling-stroke" stroke-width="1" stroke="rgb(255,255,255)" stroke-linejoin="miter" stroke-linecap="square" stroke-miterlimit="3"/></g><path d=" M 2003.849 794.383 C 2036.115 822.165 2069.762 823.835 2112.151 796.044 L 2092.899 774.915 C 2085.696 767.011 2073.216 766.196 2065.047 773.097 L 2059.849 777.488 L 2051.693 771.747 C 2042.948 765.591 2029.878 766.897 2022.525 774.662 L 2003.849 794.383 Z " fill="transparent" vector-effect="non-scaling-stroke" stroke-width="1" stroke="rgb(194,129,137)" stroke-linejoin="miter" stroke-linecap="square" stroke-miterlimit="3"/><path d=" M 1992.259 714.713 C 1993.823 726.591 2000.166 737.934 2011.259 748.713 C 2004.964 735.863 2007.974 720.54 2020.259 702.713 L 1992.259 714.713 Z " fill="rgb(255,255,255)" vector-effect="non-scaling-stroke" stroke-width="1" stroke="rgb(255,255,255)" stroke-linejoin="miter" stroke-linecap="square" stroke-miterlimit="3"/><path d=" M 2014.987 698.046 C 2016.55 709.924 2022.893 721.267 2033.987 732.046 C 2027.691 719.197 2030.701 703.873 2042.987 686.046 L 2014.987 698.046 Z " fill="rgb(255,255,255)" vector-effect="non-scaling-stroke" stroke-width="1" stroke="rgb(235,235,235)" stroke-linejoin="miter" stroke-linecap="square" stroke-miterlimit="3"/><path d=" M 2123.29 713.198 C 2121.726 725.075 2115.383 736.419 2104.29 747.198 C 2110.585 734.348 2107.575 719.025 2095.29 701.198 L 2123.29 713.198 Z " fill="rgb(255,255,255)" vector-effect="non-scaling-stroke" stroke-width="1" stroke="rgb(255,255,255)" stroke-linejoin="miter" stroke-linecap="square" stroke-miterlimit="3"/><path d=" M 2102.077 696.531 C 2100.514 708.409 2094.171 719.752 2083.077 730.531 C 2089.373 717.682 2086.363 702.358 2074.077 684.531 L 2102.077 696.531 Z " fill="rgb(255,255,255)" vector-effect="non-scaling-stroke" stroke-width="1" stroke="rgb(255,255,255)" stroke-linejoin="miter" stroke-linecap="square" stroke-miterlimit="3"/><g><path d=" M 2242.524 608.497 C 2229.28 582.039 2187.273 576.204 2148.778 595.474 C 2110.282 614.745 2089.782 651.871 2103.027 678.329 C 2116.272 704.787 2158.278 710.622 2196.774 691.352 C 2235.269 672.081 2255.769 634.955 2242.524 608.497 Z " fill="rgb(164,126,115)" vector-effect="non-scaling-stroke" stroke-width="1" stroke="rgb(164,126,115)" stroke-linejoin="miter" stroke-linecap="butt" stroke-miterlimit="3"/><path d=" M 1848.735 608.497 C 1861.98 582.039 1903.986 576.204 1942.481 595.474 C 1980.977 614.745 2001.477 651.871 1988.232 678.329 C 1974.988 704.787 1932.981 710.622 1894.486 691.352 C 1855.99 672.081 1835.49 634.955 1848.735 608.497 Z " fill="rgb(164,126,115)" vector-effect="non-scaling-stroke" stroke-width="1" stroke="rgb(164,126,115)" stroke-linejoin="miter" stroke-linecap="butt" stroke-miterlimit="3"/><path d=" M 2193.983 439.114 Q 2209.391 421.545 2225.544 411.059 C 2261.653 387.62 2289.634 395.669 2307.385 423.015 Q 2325.137 450.361 2288.397 512.428 C 2286.992 514.803 2284.625 514.856 2283.115 512.546 Q 2255.867 470.862 2195.28 444.846 C 2192.745 443.758 2192.163 441.189 2193.983 439.114 Z  M 2250.005 467.686" fill-rule="evenodd" fill="rgb(164,126,115)" vector-effect="non-scaling-stroke" stroke-width="1" stroke="rgb(164,126,115)" stroke-linejoin="miter" stroke-linecap="butt" stroke-miterlimit="3"/><path d=" M 1903.291 444.081 Q 1886.407 427.925 1869.399 418.891 C 1831.38 398.696 1804.209 409.159 1788.915 437.952 Q 1773.621 466.744 1815.643 525.364 C 1817.25 527.607 1819.613 527.452 1820.915 525.019 Q 1844.417 481.114 1902.499 449.905 C 1904.93 448.599 1905.284 445.989 1903.291 444.081 Z  M 1849.979 477.439" fill-rule="evenodd" fill="rgb(164,126,115)" vector-effect="non-scaling-stroke" stroke-width="1" stroke="rgb(164,126,115)" stroke-linejoin="miter" stroke-linecap="butt" stroke-miterlimit="3"/></g><g/><g/><text transform="matrix(1,0,0,1,1999,1141.759)" style="font-family:'Open Sans';font-weight:400;font-size:20px;font-style:normal;fill:#000000;stroke:none;">90°</text><g><path d=" M 1552 2134 L 1498 2134 L 1512 2122 L 1484 2122 C 1507.427 2103.207 1533.437 2091.883 1562 2088 L 1552 2134 Z " fill="rgb(0,0,0)" vector-effect="non-scaling-stroke" stroke-width="1" stroke="rgb(0,0,0)" stroke-linejoin="miter" stroke-linecap="square" stroke-miterlimit="3"/><path d=" M 2586.182 2134 L 2640.182 2134 L 2626.182 2122 L 2654.182 2122 C 2630.755 2103.207 2604.745 2091.883 2576.182 2088 L 2586.182 2134 Z " fill="rgb(0,0,0)" vector-effect="non-scaling-stroke" stroke-width="1" stroke="rgb(0,0,0)" stroke-linejoin="miter" stroke-linecap="square" stroke-miterlimit="3"/><path d=" M 1996.182 1779 C 1998.264 1883.475 1979.426 2039.152 1963.193 2104.875 C 1959.223 2120.95 1942.557 2134 1926 2134 L 1552 2134 C 1563.568 2018.221 1645.598 1974.251 1778 2002 L 1802 1754 L 1996.182 1779 Z " fill="rgb(108,83,76)" vector-effect="non-scaling-stroke" stroke-width="1" stroke="rgb(108,83,76)" stroke-linejoin="miter" stroke-linecap="square" stroke-miterlimit="3"/><path d=" M 2142 1779 C 2139.918 1883.475 2158.756 2039.152 2174.989 2104.875 C 2178.959 2120.95 2195.624 2134 2212.182 2134 L 2586.182 2134 C 2574.613 2018.221 2492.583 1974.251 2360.182 2002 L 2336.182 1754 L 2142 1779 Z " fill="rgb(108,83,76)" vector-effect="non-scaling-stroke" stroke-width="1" stroke="rgb(108,83,76)" stroke-linejoin="miter" stroke-linecap="square" stroke-miterlimit="3"/><path d=" M 1863.13 1333 C 1818.871 1481.388 1787.881 1618.065 1773.646 1718.249 C 1771.705 1731.909 1780.612 1746.95 1793.524 1751.815 C 1833.559 1766.901 1917.902 1778.911 1998.13 1778.979 C 2011.928 1778.991 2029.209 1769.591 2036.698 1758.002 L 2065.13 1714 L 2093.562 1758.002 C 2101.05 1769.591 2118.33 1778.825 2132.127 1778.609 C 2209.396 1777.4 2299.406 1765.41 2353.108 1749.926 C 2366.366 1746.103 2375.128 1731.978 2372.661 1718.403 C 2350.081 1594.099 2309.425 1457.442 2255.13 1333 L 1863.13 1333 Z " fill="rgb(0,0,0)" vector-effect="non-scaling-stroke" stroke-width="1" stroke="rgb(0,0,0)" stroke-linejoin="miter" stroke-linecap="square" stroke-miterlimit="3"/><path d=" M 1806.13 998 L 1898.13 818 L 1925.33 818 C 2010.669 941.884 2096.679 941.894 2183.33 818 L 2218.13 818 L 2310.13 998 C 2307.218 1107.971 2288.895 1219.648 2255.13 1333 C 2108.596 1364.846 1977.95 1364.866 1863.13 1333 C 1825.935 1207.561 1806.945 1095.904 1806.13 998 Z " fill="rgb(184,159,116)" vector-effect="non-scaling-stroke" stroke-width="1" stroke="rgb(184,159,116)" stroke-linejoin="miter" stroke-linecap="square" stroke-miterlimit="3"/><path d=" M 1574.13 409 C 1577.909 531.363 1592.586 660.373 1618.13 770 C 1670.663 855.6 1733.34 931.61 1806.13 998 C 1859.175 962.569 1889.851 902.579 1898.13 818 C 1866.978 774.467 1824.321 731.811 1770.13 690 C 1755.197 587.308 1731.207 488.985 1698.13 413 L 1574.13 409 Z " fill="rgb(108,83,76)" vector-effect="non-scaling-stroke" stroke-width="1" stroke="rgb(108,83,76)" stroke-linejoin="miter" stroke-linecap="square" stroke-miterlimit="3"/><path d=" M 2542.13 409 C 2538.35 531.363 2523.674 660.373 2498.13 770 C 2445.596 855.6 2382.92 931.61 2310.13 998 C 2257.085 962.569 2226.408 902.579 2218.13 818 C 2249.281 774.467 2291.938 731.811 2346.13 690 C 2361.063 587.308 2385.053 488.985 2418.13 413 L 2542.13 409 Z " fill="rgb(108,83,76)" vector-effect="non-scaling-stroke" stroke-width="1" stroke="rgb(108,83,76)" stroke-linejoin="miter" stroke-linecap="square" stroke-miterlimit="3"/></g><path d=" M 2058.887 566.691 C 2146.687 566.491 2192.731 634.573 2191.492 685.698 C 2191.158 699.492 2179.991 713.294 2166.571 716.501 C 2123.087 726.891 2111.363 715.227 2058.887 678.691 C 2011.087 724.891 1969.087 722.891 1940.202 711.713 C 1927.334 706.733 1917.629 691.513 1918.543 677.746 C 1922.118 623.926 1971.087 566.891 2058.887 566.691 Z " fill="rgb(131,99,86)" vector-effect="non-scaling-stroke" stroke-width="1" stroke="rgb(131,99,86)" stroke-linejoin="miter" stroke-linecap="square" stroke-miterlimit="3"/><path d=" M 2009.223 575.079 C 2023.657 567.213 2066.334 567.224 2089.813 577.3 C 2103.194 583.042 2107.158 597.304 2098.66 609.128 C 2092.861 617.196 2071.538 638.738 2066.97 641.622 C 2057.636 647.514 2042.51 647.465 2033.214 641.514 C 2028.861 638.727 2007.538 617.207 2001.586 609.033 C 1993.016 597.261 1996.438 582.047 2009.223 575.079 Z " fill="rgb(0,0,0)" vector-effect="non-scaling-stroke" stroke-width="1" stroke="rgb(0,0,0)" stroke-linejoin="miter" stroke-linecap="square" stroke-miterlimit="3"/><g><path d=" M 2086.2 555.257 C 2123.05 539.489 2153.727 530.832 2178.2 529.257 C 2197.401 536.968 2215.078 543.645 2231.2 549.257 C 2177.91 579.76 2129.587 581.77 2086.2 555.257 Z " fill="rgb(255,255,255)" vector-effect="non-scaling-stroke" stroke-width="1" stroke="rgb(235,235,235)" stroke-linejoin="miter" stroke-linecap="square" stroke-miterlimit="3"/><circle vector-effect="non-scaling-stroke" cx="2163.199951171875" cy="551.5" r="25" fill="rgb(131,99,86)"/><circle vector-effect="non-scaling-stroke" cx="2162.699951171875" cy="551.5" r="15" fill="rgb(0,0,0)"/><path d=" M 2086.2 555.257 C 2149.325 539.442 2191.002 528.2 2211.2 521.5 L 2264.2 505.5 L 2169.2 505.5 L 2086.2 555.257 Z " fill="rgb(0,0,0)" vector-effect="non-scaling-stroke" stroke-width="1" stroke="rgb(0,0,0)" stroke-linejoin="miter" stroke-linecap="square" stroke-miterlimit="3"/></g><g><path d=" M 2027.776 555.257 C 1990.925 539.489 1960.249 530.832 1935.776 529.257 C 1916.575 536.968 1898.898 543.645 1882.776 549.257 C 1936.065 579.76 1984.389 581.77 2027.776 555.257 Z " fill="rgb(255,255,255)" vector-effect="non-scaling-stroke" stroke-width="1" stroke="rgb(235,235,235)" stroke-linejoin="miter" stroke-linecap="square" stroke-miterlimit="3"/><circle vector-effect="non-scaling-stroke" cx="1950.7757211858575" cy="551.5" r="25" fill="rgb(131,99,86)"/><circle vector-effect="non-scaling-stroke" cx="1951.2757211858577" cy="551.5" r="15" fill="rgb(0,0,0)"/><path d=" M 2027.776 555.257 C 1964.651 539.442 1922.974 528.2 1902.776 521.5 L 1849.776 505.5 L 1944.776 505.5 L 2027.776 555.257 Z " fill="rgb(0,0,0)" vector-effect="non-scaling-stroke" stroke-width="1" stroke="rgb(0,0,0)" stroke-linejoin="miter" stroke-linecap="square" stroke-miterlimit="3"/></g><ellipse vector-effect="non-scaling-stroke" cx="1633.918534647397" cy="369.1521306861043" rx="86.08146535260312" ry="65.84786931389573" fill="rgb(96,74,68)"/><ellipse vector-effect="non-scaling-stroke" cx="2482.081465352603" cy="369.1521306861043" rx="86.08146535260312" ry="65.84786931389573" fill="rgb(96,74,68)"/><rect x="1304.5" y="336.791" width="1525.5" height="36.418" transform="matrix(1,0,0,1,0,0)" fill="rgb(0,0,0)"/><g><rect x="1422.594" y="157" width="53.893" height="360.103" transform="matrix(1,0,0,1,0,0)" fill="rgb(140,136,136)"/><ellipse vector-effect="non-scaling-stroke" cx="1476.4871730215405" cy="337.05143042707994" rx="45.01282697845954" ry="180.05143042707977" fill="rgb(140,136,136)"/><ellipse vector-effect="non-scaling-stroke" cx="1423.5128269784595" cy="337.05143042707994" rx="45.01282697845954" ry="180.05143042707977" fill="rgb(38,36,36)"/></g><g><rect x="2702.839" y="216" width="41.613" height="278.051" transform="matrix(1,0,0,1,0,0)" fill="rgb(140,136,136)"/><ellipse vector-effect="non-scaling-stroke" cx="2744.4519240117666" cy="355.02571521354" rx="34.75640515390478" ry="139.0257152135398" fill="rgb(140,136,136)"/><ellipse vector-effect="non-scaling-stroke" cx="2703.548075988233" cy="355.02571521354" rx="34.75640515390478" ry="139.0257152135398" fill="rgb(38,36,36)"/></g><g><rect x="1373.63" y="216" width="41.613" height="278.051" transform="matrix(1,0,0,1,0,0)" fill="rgb(140,136,136)"/><ellipse vector-effect="non-scaling-stroke" cx="1415.2435948460952" cy="355.02571521354014" rx="34.75640515390478" ry="139.02571521353985" fill="rgb(140,136,136)"/><ellipse vector-effect="non-scaling-stroke" cx="1374.3397468225617" cy="355.02571521354014" rx="34.75640515390478" ry="139.02571521353985" fill="rgb(38,36,36)"/></g><g><rect x="2625.094" y="174.949" width="53.893" height="360.103" transform="matrix(1,0,0,1,0,0)" fill="rgb(140,136,136)"/><ellipse vector-effect="non-scaling-stroke" cx="2678.9871730215405" cy="355" rx="45.01282697845954" ry="180.0514304270797" fill="rgb(140,136,136)"/><ellipse vector-effect="non-scaling-stroke" cx="2626.0128269784595" cy="355" rx="45.01282697845954" ry="180.0514304270797" fill="rgb(38,36,36)"/></g><path d=" M 1304.5 336.791 L 1364.5 336.791 C 1373.433 343.33 1373.443 355.48 1364.5 373.209 L 1304.5 373.209 L 1304.5 336.791 Z " fill="rgb(0,0,0)"/><ellipse vector-effect="non-scaling-stroke" cx="1581.9999999999998" cy="337.0514304270798" rx="20" ry="33.60461373390547" fill="rgb(108,83,76)"/><ellipse vector-effect="non-scaling-stroke" cx="2430.1629307052053" cy="337.05143042707977" rx="20" ry="33.60461373390552" fill="rgb(108,83,76)"/><ellipse vector-effect="non-scaling-stroke" cx="1617.9999999999998" cy="326.99999999999994" rx="20" ry="33.60461373390552" fill="rgb(108,83,76)"/><ellipse vector-effect="non-scaling-stroke" cx="2466.162930705206" cy="326.99999999999994" rx="20" ry="33.60461373390552" fill="rgb(108,83,76)"/><ellipse vector-effect="non-scaling-stroke" cx="1653.9999999999998" cy="326.9999999999999" rx="20" ry="33.60461373390547" fill="rgb(108,83,76)"/><ellipse vector-effect="non-scaling-stroke" cx="2502.162930705206" cy="326.9999999999999" rx="20" ry="33.60461373390547" fill="rgb(108,83,76)"/><ellipse vector-effect="non-scaling-stroke" cx="1683.9999999999998" cy="337.0514304270799" rx="20" ry="33.60461373390552" fill="rgb(108,83,76)"/><ellipse vector-effect="non-scaling-stroke" cx="2532.162930705206" cy="337.0514304270798" rx="20" ry="33.60461373390547" fill="rgb(108,83,76)"/><path d=" M 1592 390.103 L 1580.343 377.137 C 1578.498 375.085 1576.357 371.272 1575.565 368.629 L 1572 356.734 L 1582 356.734 L 1592 356.734 L 1588.435 368.629 C 1587.643 371.272 1587.643 375.565 1588.435 378.208 L 1592 390.103 Z " fill="rgb(235,235,235)"/><path d=" M 2440.163 390.103 L 2428.506 377.137 C 2426.661 375.085 2424.52 371.272 2423.728 368.629 L 2420.163 356.734 L 2430.163 356.734 L 2440.163 356.734 L 2436.598 368.629 C 2435.806 371.272 2435.806 375.565 2436.598 378.208 L 2440.163 390.103 Z " fill="rgb(235,235,235)"/><path d=" M 1623 377.289 L 1615.57 364.893 C 1614.152 362.526 1612.357 358.458 1611.565 355.815 L 1608 343.92 L 1618 343.92 L 1628 343.92 L 1624.435 355.815 C 1623.643 358.458 1623 362.845 1623 365.605 L 1623 377.289 Z " fill="rgb(235,235,235)"/><path d=" M 2471.163 377.289 L 2463.733 364.893 C 2462.315 362.526 2460.52 358.458 2459.728 355.815 L 2456.163 343.92 L 2466.163 343.92 L 2476.163 343.92 L 2472.598 355.815 C 2471.806 358.458 2471.163 362.845 2471.163 365.605 L 2471.163 377.289 Z " fill="rgb(235,235,235)"/><path d=" M 1649 377.289 L 1649 365.605 C 1649 362.845 1648.357 358.458 1647.565 355.815 L 1644 343.92 L 1654 343.92 L 1664 343.92 L 1660.435 355.815 C 1659.643 358.458 1657.848 362.526 1656.43 364.893 L 1649 377.289 Z " fill="rgb(235,235,235)"/><path d=" M 2497.163 377.289 L 2497.163 365.605 C 2497.163 362.845 2496.52 358.458 2495.728 355.815 L 2492.163 343.92 L 2502.163 343.92 L 2512.163 343.92 L 2508.598 355.815 C 2507.806 358.458 2506.011 362.526 2504.592 364.893 L 2497.163 377.289 Z " fill="rgb(235,235,235)"/><path d=" M 1678 390.103 L 1678 378.418 C 1678 375.659 1677.357 371.272 1676.565 368.629 L 1673 356.734 L 1683 356.734 L 1693 356.734 L 1689.435 368.629 C 1688.643 371.272 1686.848 375.34 1685.43 377.707 L 1678 390.103 Z " fill="rgb(235,235,235)"/><path d=" M 2526.163 390.103 L 2526.163 378.418 C 2526.163 375.659 2525.52 371.272 2524.728 368.629 L 2521.163 356.734 L 2531.163 356.734 L 2541.163 356.734 L 2537.598 368.629 C 2536.806 371.272 2535.011 375.34 2533.592 377.707 L 2526.163 390.103 Z " fill="rgb(235,235,235)"/></g></svg>