<svg id="Layer_2" data-name="Layer 2" xmlns="http://www.w3.org/2000/svg" viewBox="0 0 1366 768"><defs><style>.cls-1{fill:#343434;}.cls-2,.cls-3,.cls-4,.cls-5,.cls-6{fill:none;stroke:#877148;stroke-miterlimit:10;}.cls-2{stroke-width:6px;}.cls-3{stroke-width:2px;}.cls-4{stroke-width:5px;}.cls-5{stroke-width:3px;}</style></defs><title>RecCenter</title><rect class="cls-1" width="1366" height="768"/><rect class="cls-2" x="399.62" y="170" width="78.89" height="161.17"/><path class="cls-2" d="M326.37,250s-22.54,9-89,58.61h89Z"/><polygon class="cls-2" points="950.75 314.26 958.63 404.42 399.62 376.25 399.62 331.17 950.75 314.26"/><polygon class="cls-2" points="478.52 170 478.52 211.7 949.62 227.48 949.62 198.18 478.52 170"/><polygon class="cls-2" points="478.52 256.78 949.46 265.69 955.25 227.48 478.52 212 478.52 250.02 478.52 289.47 955.25 289.47 955.25 268.05 478.52 256.78"/><path class="cls-3" d="M1067.19,388.75c.18.47,2.75.93,7.23,1.39,40.71,4.15,239.19,7.8,239.19,7.8l-1.4,40.61L1057.84,436l-1.37-47.65Z"/><path class="cls-2" d="M1127.19,394.73l-3.74,41.54Z"/><path class="cls-2" d="M1165.7,394.36l-3.83,42.47Z"/><path class="cls-2" d="M1200.66,395.69l-3.74,41.53Z"/><path class="cls-2" d="M1236,396.27l-3.7,41.12Z"/><path class="cls-2" d="M1268.79,397l-3.46,38.44Z"/><path class="cls-2" d="M1300.42,397.69l-3.66,40.61Z"/><path class="cls-2" d="M1091.37,390.37l-4,44.91Z"/><polyline class="cls-4" points="161.26 308.06 395.68 308.06 395.68 356.52"/><path class="cls-4" d="M392.3,356.52s18-4.51-227.66-33.81V308.06"/><line class="cls-4" x1="216.48" y1="330.6" x2="217.61" y2="430.91"/><polyline class="cls-5" points="392.3 356.52 392.3 429.78 1006.53 526.71"/><line class="cls-4" x1="337.07" y1="345.25" x2="335.95" y2="426.4"/><line class="cls-4" x1="466.68" y1="377.94" x2="467.81" y2="444.43"/><line class="cls-4" x1="525.29" y1="385.83" x2="525.29" y2="452.32"/><line class="cls-4" x1="590.66" y1="385.83" x2="590.66" y2="461.34"/><line class="cls-4" x1="665.04" y1="390.34" x2="665.04" y2="473.74"/><line class="cls-4" x1="746.19" y1="393.72" x2="746.19" y2="485.01"/><line class="cls-4" x1="846.49" y1="398.23" x2="846.49" y2="501.91"/><line class="cls-4" x1="954.69" y1="403.86" x2="954.69" y2="518.82"/><polyline class="cls-2" points="955.25 199.3 955.25 308.63 990.19 308.63 984.56 199.3 949.62 199.3"/><path class="cls-4" d="M398.5,433.16H198.07S153,416.26,15.49,421.89,974.6,632.65,998.27,614.62c0,0,428.27,32.68,465.47,1.13"/><ellipse class="cls-3" cx="364.12" cy="242.13" rx="14.65" ry="36.63"/><line class="cls-6" x1="363.56" y1="204.94" x2="363.56" y2="278.2"/><line class="cls-6" x1="372.58" y1="211.7" x2="372.58" y2="270.31"/><line class="cls-6" x1="355.67" y1="211.7" x2="355.67" y2="270.31"/><line class="cls-6" x1="348.91" y1="228.61" x2="377.08" y2="228.61"/><line class="cls-6" x1="348.91" y1="242.13" x2="378.21" y2="242.13"/><line class="cls-6" x1="353.42" y1="261.29" x2="378.21" y2="261.29"/><line class="cls-6" x1="477.95" y1="220.15" x2="954.69" y2="233.68"/><line class="cls-6" x1="479.03" y1="239.35" x2="949.11" y2="248.3"/><line class="cls-6" x1="479.03" y1="234.84" x2="949.11" y2="243.79"/><line class="cls-6" x1="476.77" y1="230.27" x2="953.62" y2="239.34"/><line class="cls-6" x1="476.77" y1="225.76" x2="953.62" y2="234.84"/><line class="cls-6" x1="476.83" y1="249.46" x2="950.18" y2="258.47"/><line class="cls-6" x1="476.77" y1="243.81" x2="951.36" y2="252.85"/><polygon class="cls-6" points="449.78 420.77 934.4 454.58 933.28 406.11 449.78 390.34 449.78 420.77"/><path class="cls-6" d="M905.1,407.24v0Z"/><line class="cls-6" x1="879.46" y1="404.42" x2="879.46" y2="450.74"/><line class="cls-6" x1="837.48" y1="403.86" x2="837.48" y2="447.81"/><line class="cls-6" x1="804.54" y1="401.91" x2="806.44" y2="445.65"/><line class="cls-6" x1="782.82" y1="401.91" x2="782.25" y2="443.31"/><line class="cls-6" x1="757.74" y1="400.39" x2="759.68" y2="442.39"/><line class="cls-6" x1="738.3" y1="401.61" x2="738.3" y2="440.9"/><line class="cls-6" x1="717.47" y1="399.07" x2="719.07" y2="439.55"/><line class="cls-6" x1="696.32" y1="398.38" x2="696.6" y2="435.98"/><line class="cls-6" x1="676.88" y1="397.75" x2="678.57" y2="435.42"/><line class="cls-6" x1="641.37" y1="396.59" x2="642.47" y2="434.21"/><line class="cls-6" x1="622.21" y1="398.23" x2="622.21" y2="430.91"/><line class="cls-6" x1="605.31" y1="397.1" x2="606.44" y2="430.91"/><line class="cls-6" x1="573.75" y1="394.84" x2="573.75" y2="426.96"/><line class="cls-6" x1="544.45" y1="393.72" x2="544.45" y2="427.37"/><line class="cls-6" x1="557.97" y1="394.84" x2="557.97" y2="427.53"/><line class="cls-6" x1="515.71" y1="392.49" x2="514.02" y2="424.15"/><line class="cls-6" x1="501.62" y1="392.49" x2="501.62" y2="423.02"/><line class="cls-6" x1="476.83" y1="392.59" x2="476.21" y2="422.61"/><polygon class="cls-6" points="342.71 383.57 342.71 421.89 342.71 427.53 401.31 427.53 401.31 383.57 342.71 383.57"/><polyline class="cls-6" points="348.34 391.46 348.34 392.59 348.34 426.4 364.12 426.4 364.12 391.46 349.47 391.46 377.65 391.46 377.65 426.4 366.38 426.4 391.55 427.37 390.04 391.46"/><line class="cls-6" x1="377.65" y1="391.46" x2="388.92" y2="391.46"/><polygon class="cls-6" points="201.83 335.11 201.83 374.56 230.97 375.41 336.51 378.5 336.51 348.45 243.53 335.11 201.83 335.11"/><line class="cls-6" x1="293.12" y1="419.64" x2="293.12" y2="377.23"/><polyline class="cls-6" points="264.94 427.53 264.94 420.77 342.71 420.77 342.71 425.27 267.2 427.53"/><line class="cls-6" x1="323.55" y1="420.77" x2="323.55" y2="378.5"/><line class="cls-6" x1="259.31" y1="419.64" x2="257.62" y2="376.19"/><polyline class="cls-6" points="231.13 416.26 230 375.68 231.13 419.64 333.69 420.77"/><path class="cls-4" d="M-49.5,430.91S938.91,708.16,1472,689"/><line class="cls-6" x1="489.22" y1="392.59" x2="488.61" y2="422.61"/><line class="cls-6" x1="461.05" y1="390.34" x2="460.43" y2="420.36"/><polyline class="cls-2" points="397.37 170 328.62 170 328.62 308.63"/><rect class="cls-2" x="955.25" y="316.51" width="43.95" height="85.4"/><path class="cls-2" d="M954.13,314.26h399V569s-202.52-37.27-296.51-50.15c-25-3.43-42.32-5.13-46.11-3.94"/><polyline class="cls-2" points="999.21 402.17 1001.46 513.75 1013.09 514.53"/><path class="cls-3" d="M999.25,510.43s426.69,90.42,465.38,106.95"/><line class="cls-3" x1="1001.46" y1="514.87" x2="400.75" y2="426.96"/><path class="cls-5" d="M1015.61,529s-153.37-33.52,419.3,94.2"/></svg>